<svg width="416" height="80" viewBox="0 0 416 80" fill="none" xmlns="http://www.w3.org/2000/svg">
<path d="M75.504 24.192C73.856 24.192 72.416 23.84 71.184 23.136C69.968 22.416 69.032 21.4 68.376 20.088C67.72 18.776 67.392 17.224 67.392 15.432C67.392 13.656 67.72 12.112 68.376 10.8C69.032 9.488 69.968 8.48 71.184 7.776C72.416 7.072 73.856 6.72 75.504 6.72C76.672 6.72 77.752 6.904 78.744 7.272C79.752 7.624 80.6 8.144 81.288 8.832L80.424 10.656C79.624 10 78.832 9.528 78.048 9.24C77.28 8.936 76.44 8.784 75.528 8.784C73.752 8.784 72.376 9.36 71.4 10.512C70.44 11.664 69.96 13.304 69.96 15.432C69.96 17.576 70.44 19.232 71.4 20.4C72.376 21.552 73.752 22.128 75.528 22.128C76.44 22.128 77.28 21.984 78.048 21.696C78.832 21.392 79.624 20.912 80.424 20.256L81.288 22.08C80.6 22.768 79.752 23.296 78.744 23.664C77.752 24.016 76.672 24.192 75.504 24.192ZM89.1559 24.168C87.9719 24.168 86.9319 23.912 86.0359 23.4C85.1399 22.888 84.4439 22.16 83.9479 21.216C83.4679 20.272 83.2279 19.168 83.2279 17.904C83.2279 16.64 83.4679 15.536 83.9479 14.592C84.4439 13.632 85.1399 12.896 86.0359 12.384C86.9319 11.872 87.9719 11.616 89.1559 11.616C90.3239 11.616 91.3559 11.872 92.2519 12.384C93.1479 12.896 93.8359 13.632 94.3159 14.592C94.8119 15.536 95.0599 16.64 95.0599 17.904C95.0599 19.168 94.8119 20.272 94.3159 21.216C93.8359 22.16 93.1479 22.888 92.2519 23.4C91.3559 23.912 90.3239 24.168 89.1559 24.168ZM89.1319 22.248C90.2519 22.248 91.1079 21.88 91.6999 21.144C92.2919 20.408 92.5879 19.328 92.5879 17.904C92.5879 16.512 92.2839 15.44 91.6759 14.688C91.0839 13.936 90.2439 13.56 89.1559 13.56C88.0519 13.56 87.1959 13.936 86.5879 14.688C85.9799 15.44 85.6759 16.512 85.6759 17.904C85.6759 19.328 85.9719 20.408 86.5639 21.144C87.1719 21.88 88.0279 22.248 89.1319 22.248ZM104.325 11.616C107.221 11.616 108.669 13.232 108.669 16.464V24H106.245V16.608C106.245 15.552 106.037 14.784 105.621 14.304C105.221 13.824 104.573 13.584 103.677 13.584C102.653 13.584 101.829 13.904 101.205 14.544C100.597 15.184 100.293 16.04 100.293 17.112V24H97.8932V15.312C97.8932 14.048 97.8292 12.912 97.7012 11.904H99.9572L100.173 13.992C100.557 13.224 101.109 12.64 101.829 12.24C102.565 11.824 103.397 11.616 104.325 11.616ZM123.28 11.904V23.784C123.28 25.624 122.792 27.008 121.816 27.936C120.856 28.88 119.424 29.352 117.52 29.352C115.68 29.352 114.072 28.952 112.696 28.152L113.104 26.256C113.856 26.656 114.576 26.952 115.264 27.144C115.968 27.336 116.712 27.432 117.496 27.432C119.752 27.432 120.88 26.28 120.88 23.976V21.36C120.512 22.064 119.976 22.624 119.272 23.04C118.568 23.44 117.752 23.64 116.824 23.64C115.768 23.64 114.824 23.392 113.992 22.896C113.176 22.4 112.536 21.696 112.072 20.784C111.624 19.872 111.4 18.824 111.4 17.64C111.4 16.456 111.624 15.408 112.072 14.496C112.536 13.584 113.176 12.88 113.992 12.384C114.824 11.872 115.768 11.616 116.824 11.616C117.752 11.616 118.568 11.816 119.272 12.216C119.976 12.6 120.512 13.152 120.88 13.872V11.904H123.28ZM117.376 21.696C118.464 21.696 119.32 21.336 119.944 20.616C120.568 19.896 120.88 18.904 120.88 17.64C120.88 16.376 120.568 15.384 119.944 14.664C119.336 13.928 118.48 13.56 117.376 13.56C116.288 13.56 115.424 13.928 114.784 14.664C114.16 15.384 113.848 16.376 113.848 17.64C113.848 18.888 114.16 19.88 114.784 20.616C115.424 21.336 116.288 21.696 117.376 21.696ZM132.863 11.616C133.231 11.616 133.615 11.672 134.015 11.784L133.967 13.992C133.535 13.832 133.063 13.752 132.551 13.752C131.447 13.752 130.615 14.088 130.055 14.76C129.511 15.416 129.239 16.248 129.239 17.256V24H126.839V15.312C126.839 14.048 126.775 12.912 126.646 11.904H128.903L129.119 14.088C129.439 13.288 129.935 12.68 130.607 12.264C131.279 11.832 132.031 11.616 132.863 11.616ZM146.692 11.904V24H144.292V21.936C143.94 22.656 143.412 23.208 142.708 23.592C142.02 23.976 141.212 24.168 140.284 24.168C139.212 24.168 138.268 23.912 137.452 23.4C136.652 22.888 136.028 22.168 135.58 21.24C135.132 20.296 134.908 19.2 134.908 17.952C134.908 16.704 135.132 15.6 135.58 14.64C136.044 13.68 136.684 12.936 137.5 12.408C138.316 11.88 139.244 11.616 140.284 11.616C141.212 11.616 142.02 11.816 142.708 12.216C143.396 12.6 143.924 13.152 144.292 13.872V11.904H146.692ZM140.86 22.248C141.948 22.248 142.788 21.872 143.38 21.12C143.988 20.352 144.292 19.28 144.292 17.904C144.292 16.512 143.988 15.44 143.38 14.688C142.788 13.936 141.94 13.56 140.836 13.56C139.748 13.56 138.892 13.952 138.268 14.736C137.66 15.504 137.356 16.576 137.356 17.952C137.356 19.312 137.66 20.368 138.268 21.12C138.892 21.872 139.756 22.248 140.86 22.248ZM153.397 13.776V19.848C153.397 20.68 153.573 21.272 153.925 21.624C154.293 21.96 154.797 22.128 155.437 22.128C155.853 22.128 156.277 22.064 156.709 21.936V23.904C156.181 24.08 155.581 24.168 154.909 24.168C153.661 24.168 152.693 23.816 152.005 23.112C151.317 22.408 150.973 21.384 150.973 20.04V13.776H148.621V11.904H150.973V8.88L153.397 8.04V11.904H156.733V13.776H153.397ZM169.483 11.904V24H167.131V21.984C166.747 22.688 166.219 23.232 165.547 23.616C164.875 23.984 164.115 24.168 163.267 24.168C160.355 24.168 158.899 22.552 158.899 19.32V11.904H161.299V19.296C161.299 20.288 161.499 21.024 161.899 21.504C162.315 21.968 162.939 22.2 163.771 22.2C164.763 22.2 165.555 21.88 166.147 21.24C166.755 20.6 167.059 19.752 167.059 18.696V11.904H169.483ZM173.034 6.336H175.434V24H173.034V6.336ZM190.051 11.904V24H187.651V21.936C187.299 22.656 186.771 23.208 186.067 23.592C185.379 23.976 184.571 24.168 183.643 24.168C182.571 24.168 181.627 23.912 180.811 23.4C180.011 22.888 179.387 22.168 178.939 21.24C178.491 20.296 178.267 19.2 178.267 17.952C178.267 16.704 178.491 15.6 178.939 14.64C179.403 13.68 180.043 12.936 180.859 12.408C181.675 11.88 182.603 11.616 183.643 11.616C184.571 11.616 185.379 11.816 186.067 12.216C186.755 12.6 187.283 13.152 187.651 13.872V11.904H190.051ZM184.219 22.248C185.307 22.248 186.147 21.872 186.739 21.12C187.347 20.352 187.651 19.28 187.651 17.904C187.651 16.512 187.347 15.44 186.739 14.688C186.147 13.936 185.299 13.56 184.195 13.56C183.107 13.56 182.251 13.952 181.627 14.736C181.019 15.504 180.715 16.576 180.715 17.952C180.715 19.312 181.019 20.368 181.627 21.12C182.251 21.872 183.115 22.248 184.219 22.248ZM196.756 13.776V19.848C196.756 20.68 196.932 21.272 197.284 21.624C197.652 21.96 198.156 22.128 198.796 22.128C199.212 22.128 199.636 22.064 200.068 21.936V23.904C199.54 24.08 198.94 24.168 198.268 24.168C197.02 24.168 196.052 23.816 195.364 23.112C194.676 22.408 194.332 21.384 194.332 20.04V13.776H191.98V11.904H194.332V8.88L196.756 8.04V11.904H200.092V13.776H196.756ZM202.331 11.904H204.731V24H202.331V11.904ZM204.923 6.624V9.168H202.115V6.624H204.923ZM213.492 24.168C212.308 24.168 211.268 23.912 210.372 23.4C209.476 22.888 208.78 22.16 208.284 21.216C207.804 20.272 207.564 19.168 207.564 17.904C207.564 16.64 207.804 15.536 208.284 14.592C208.78 13.632 209.476 12.896 210.372 12.384C211.268 11.872 212.308 11.616 213.492 11.616C214.66 11.616 215.692 11.872 216.588 12.384C217.484 12.896 218.172 13.632 218.652 14.592C219.148 15.536 219.396 16.64 219.396 17.904C219.396 19.168 219.148 20.272 218.652 21.216C218.172 22.16 217.484 22.888 216.588 23.4C215.692 23.912 214.66 24.168 213.492 24.168ZM213.468 22.248C214.588 22.248 215.444 21.88 216.036 21.144C216.628 20.408 216.924 19.328 216.924 17.904C216.924 16.512 216.62 15.44 216.012 14.688C215.42 13.936 214.58 13.56 213.492 13.56C212.388 13.56 211.532 13.936 210.924 14.688C210.316 15.44 210.012 16.512 210.012 17.904C210.012 19.328 210.308 20.408 210.9 21.144C211.508 21.88 212.364 22.248 213.468 22.248ZM228.661 11.616C231.557 11.616 233.005 13.232 233.005 16.464V24H230.581V16.608C230.581 15.552 230.373 14.784 229.957 14.304C229.557 13.824 228.909 13.584 228.013 13.584C226.989 13.584 226.165 13.904 225.541 14.544C224.933 15.184 224.629 16.04 224.629 17.112V24H222.229V15.312C222.229 14.048 222.165 12.912 222.037 11.904H224.293L224.509 13.992C224.893 13.224 225.445 12.64 226.165 12.24C226.901 11.824 227.733 11.616 228.661 11.616ZM240.68 24.168C238.568 24.168 236.904 23.656 235.688 22.632L236.408 20.88C237.672 21.84 239.12 22.32 240.752 22.32C241.584 22.32 242.216 22.184 242.648 21.912C243.08 21.624 243.296 21.224 243.296 20.712C243.296 20.28 243.144 19.944 242.84 19.704C242.552 19.448 242.056 19.232 241.352 19.056L239.336 18.576C238.28 18.352 237.472 17.96 236.912 17.4C236.368 16.824 236.096 16.112 236.096 15.264C236.096 14.176 236.528 13.296 237.392 12.624C238.272 11.952 239.432 11.616 240.872 11.616C241.736 11.616 242.552 11.752 243.32 12.024C244.104 12.296 244.768 12.68 245.312 13.176L244.568 14.88C243.4 13.952 242.168 13.488 240.872 13.488C240.088 13.488 239.48 13.64 239.048 13.944C238.616 14.232 238.4 14.64 238.4 15.168C238.4 15.584 238.536 15.92 238.808 16.176C239.08 16.432 239.512 16.632 240.104 16.776L242.168 17.28C243.32 17.536 244.168 17.944 244.712 18.504C245.272 19.048 245.552 19.76 245.552 20.64C245.552 21.728 245.112 22.592 244.232 23.232C243.368 23.856 242.184 24.168 240.68 24.168ZM248.001 6.912H251.001L250.257 19.224H248.769L248.001 6.912ZM250.953 21.12V24H248.073V21.12H250.953Z" fill="#424242"/>
<path d="M71.504 50.392V55H70.192V50.376L65.712 43.608H67.248L70.864 49.208L74.48 43.608H75.984L71.504 50.392ZM79.0604 55.112C78.303 55.112 77.6364 54.9413 77.0604 54.6C76.4844 54.2587 76.0364 53.7733 75.7164 53.144C75.407 52.5147 75.2524 51.7787 75.2524 50.936C75.2524 50.0933 75.407 49.3573 75.7164 48.728C76.0364 48.0987 76.4844 47.6133 77.0604 47.272C77.6364 46.9307 78.303 46.76 79.0604 46.76C79.8177 46.76 80.4844 46.9307 81.0604 47.272C81.6364 47.6133 82.079 48.0987 82.3884 48.728C82.7084 49.3573 82.8684 50.0933 82.8684 50.936C82.8684 51.7787 82.7084 52.5147 82.3884 53.144C82.079 53.7733 81.6364 54.2587 81.0604 54.6C80.4844 54.9413 79.8177 55.112 79.0604 55.112ZM79.0604 54.04C79.8604 54.04 80.4737 53.7787 80.9004 53.256C81.327 52.7227 81.5404 51.9493 81.5404 50.936C81.5404 49.9547 81.3217 49.1973 80.8844 48.664C80.447 48.12 79.839 47.848 79.0604 47.848C78.271 47.848 77.6577 48.12 77.2204 48.664C76.783 49.1973 76.5644 49.9547 76.5644 50.936C76.5644 51.9493 76.7777 52.7227 77.2044 53.256C77.6417 53.7787 78.2604 54.04 79.0604 54.04ZM91.6246 46.952V55H90.3606V53.608C90.1046 54.0987 89.7473 54.472 89.2886 54.728C88.83 54.984 88.3126 55.112 87.7366 55.112C86.7873 55.112 86.0673 54.8453 85.5766 54.312C85.086 53.7787 84.8406 52.9893 84.8406 51.944V46.952H86.1366V51.912C86.1366 52.6373 86.286 53.1707 86.5846 53.512C86.8833 53.8533 87.3366 54.024 87.9446 54.024C88.6593 54.024 89.2353 53.7947 89.6726 53.336C90.11 52.8667 90.3286 52.2533 90.3286 51.496V46.952H91.6246ZM102.311 46.76C104.242 46.76 105.207 47.8213 105.207 49.944V55H103.911V50.008C103.911 49.2613 103.762 48.7173 103.463 48.376C103.164 48.024 102.695 47.848 102.055 47.848C101.308 47.848 100.711 48.0773 100.263 48.536C99.8149 48.9947 99.5909 49.6133 99.5909 50.392V55H98.2949V43.224H99.5909V48.264C99.8469 47.7733 100.21 47.4 100.679 47.144C101.159 46.888 101.703 46.76 102.311 46.76ZM114.742 46.952V55H113.462V53.544C113.228 54.0453 112.87 54.4347 112.39 54.712C111.921 54.9787 111.372 55.112 110.742 55.112C110.028 55.112 109.398 54.9413 108.854 54.6C108.321 54.2587 107.905 53.7787 107.606 53.16C107.318 52.5307 107.174 51.8 107.174 50.968C107.174 50.136 107.324 49.4053 107.622 48.776C107.921 48.136 108.337 47.64 108.87 47.288C109.414 46.936 110.038 46.76 110.742 46.76C111.372 46.76 111.921 46.8987 112.39 47.176C112.86 47.4533 113.217 47.8427 113.462 48.344V46.952H114.742ZM110.998 54.04C111.788 54.04 112.396 53.7733 112.822 53.24C113.249 52.696 113.462 51.928 113.462 50.936C113.462 49.944 113.249 49.1813 112.822 48.648C112.396 48.1147 111.788 47.848 110.998 47.848C110.209 47.848 109.59 48.1253 109.142 48.68C108.705 49.224 108.486 49.9867 108.486 50.968C108.486 51.9493 108.705 52.7067 109.142 53.24C109.58 53.7733 110.198 54.04 110.998 54.04ZM124.32 46.968L120.848 55H119.616L116.192 46.968H117.552L120.272 53.592L123.024 46.968H124.32ZM132.39 50.936H126.486C126.497 51.96 126.732 52.7333 127.19 53.256C127.66 53.7787 128.337 54.04 129.222 54.04C130.161 54.04 131.025 53.7253 131.814 53.096L132.246 54.04C131.894 54.3707 131.441 54.632 130.886 54.824C130.342 55.016 129.782 55.112 129.206 55.112C127.948 55.112 126.961 54.744 126.246 54.008C125.532 53.2613 125.174 52.2427 125.174 50.952C125.174 50.1307 125.334 49.4053 125.654 48.776C125.974 48.136 126.422 47.64 126.998 47.288C127.574 46.936 128.23 46.76 128.966 46.76C130.033 46.76 130.87 47.112 131.478 47.816C132.086 48.5093 132.39 49.4693 132.39 50.696V50.936ZM128.982 47.768C128.31 47.768 127.761 47.9707 127.334 48.376C126.918 48.7813 126.652 49.352 126.534 50.088H131.222C131.158 49.3307 130.934 48.7547 130.55 48.36C130.177 47.9653 129.654 47.768 128.982 47.768ZM141.249 55.112C139.895 55.112 138.823 54.7653 138.033 54.072L138.465 53.112C138.903 53.4533 139.345 53.6987 139.793 53.848C140.241 53.9973 140.743 54.072 141.297 54.072C141.905 54.072 142.364 53.9707 142.673 53.768C142.993 53.5547 143.153 53.2507 143.153 52.856C143.153 52.536 143.047 52.28 142.833 52.088C142.62 51.896 142.268 51.7467 141.777 51.64L140.417 51.32C139.745 51.1707 139.223 50.904 138.849 50.52C138.487 50.136 138.305 49.6773 138.305 49.144C138.305 48.44 138.588 47.8693 139.153 47.432C139.719 46.984 140.465 46.76 141.393 46.76C141.959 46.76 142.492 46.8507 142.993 47.032C143.495 47.2133 143.916 47.4747 144.257 47.816L143.825 48.76C143.068 48.1307 142.257 47.816 141.393 47.816C140.817 47.816 140.369 47.928 140.049 48.152C139.74 48.3653 139.585 48.6693 139.585 49.064C139.585 49.3947 139.681 49.656 139.873 49.848C140.076 50.04 140.396 50.1893 140.833 50.296L142.193 50.632C142.94 50.8027 143.495 51.0693 143.857 51.432C144.22 51.784 144.401 52.248 144.401 52.824C144.401 53.5173 144.119 54.072 143.553 54.488C142.988 54.904 142.22 55.112 141.249 55.112ZM153.203 46.952V55H151.939V53.608C151.683 54.0987 151.325 54.472 150.867 54.728C150.408 54.984 149.891 55.112 149.315 55.112C148.365 55.112 147.645 54.8453 147.155 54.312C146.664 53.7787 146.419 52.9893 146.419 51.944V46.952H147.715V51.912C147.715 52.6373 147.864 53.1707 148.163 53.512C148.461 53.8533 148.915 54.024 149.523 54.024C150.237 54.024 150.813 53.7947 151.251 53.336C151.688 52.8667 151.907 52.2533 151.907 51.496V46.952H153.203ZM159.077 55.112C158.298 55.112 157.616 54.9413 157.029 54.6C156.453 54.2587 156.005 53.7787 155.685 53.16C155.376 52.5307 155.221 51.8 155.221 50.968C155.221 50.136 155.381 49.4053 155.701 48.776C156.021 48.136 156.474 47.64 157.061 47.288C157.658 46.936 158.352 46.76 159.141 46.76C159.685 46.76 160.208 46.856 160.709 47.048C161.221 47.2293 161.642 47.4853 161.973 47.816L161.541 48.776C161.136 48.456 160.741 48.2213 160.357 48.072C159.984 47.9227 159.6 47.848 159.205 47.848C158.384 47.848 157.738 48.1253 157.269 48.68C156.8 49.224 156.565 49.9867 156.565 50.968C156.565 51.9387 156.794 52.696 157.253 53.24C157.722 53.7733 158.373 54.04 159.205 54.04C159.6 54.04 159.984 53.9653 160.357 53.816C160.741 53.6667 161.136 53.432 161.541 53.112L161.973 54.072C161.632 54.392 161.2 54.648 160.677 54.84C160.165 55.0213 159.632 55.112 159.077 55.112ZM166.999 55.112C166.22 55.112 165.538 54.9413 164.951 54.6C164.375 54.2587 163.927 53.7787 163.607 53.16C163.298 52.5307 163.143 51.8 163.143 50.968C163.143 50.136 163.303 49.4053 163.623 48.776C163.943 48.136 164.396 47.64 164.983 47.288C165.58 46.936 166.274 46.76 167.063 46.76C167.607 46.76 168.13 46.856 168.631 47.048C169.143 47.2293 169.564 47.4853 169.895 47.816L169.463 48.776C169.058 48.456 168.663 48.2213 168.279 48.072C167.906 47.9227 167.522 47.848 167.127 47.848C166.306 47.848 165.66 48.1253 165.191 48.68C164.722 49.224 164.487 49.9867 164.487 50.968C164.487 51.9387 164.716 52.696 165.175 53.24C165.644 53.7733 166.295 54.04 167.127 54.04C167.522 54.04 167.906 53.9653 168.279 53.816C168.663 53.6667 169.058 53.432 169.463 53.112L169.895 54.072C169.554 54.392 169.122 54.648 168.599 54.84C168.087 55.0213 167.554 55.112 166.999 55.112ZM178.281 50.936H172.377C172.388 51.96 172.622 52.7333 173.081 53.256C173.55 53.7787 174.228 54.04 175.113 54.04C176.052 54.04 176.916 53.7253 177.705 53.096L178.137 54.04C177.785 54.3707 177.332 54.632 176.777 54.824C176.233 55.016 175.673 55.112 175.097 55.112C173.838 55.112 172.852 54.744 172.137 54.008C171.422 53.2613 171.065 52.2427 171.065 50.952C171.065 50.1307 171.225 49.4053 171.545 48.776C171.865 48.136 172.313 47.64 172.889 47.288C173.465 46.936 174.121 46.76 174.857 46.76C175.924 46.76 176.761 47.112 177.369 47.816C177.977 48.5093 178.281 49.4693 178.281 50.696V50.936ZM174.873 47.768C174.201 47.768 173.652 47.9707 173.225 48.376C172.809 48.7813 172.542 49.352 172.425 50.088H177.113C177.049 49.3307 176.825 48.7547 176.441 48.36C176.068 47.9653 175.545 47.768 174.873 47.768ZM182.968 55.112C181.613 55.112 180.541 54.7653 179.752 54.072L180.184 53.112C180.621 53.4533 181.064 53.6987 181.512 53.848C181.96 53.9973 182.461 54.072 183.016 54.072C183.624 54.072 184.083 53.9707 184.392 53.768C184.712 53.5547 184.872 53.2507 184.872 52.856C184.872 52.536 184.765 52.28 184.552 52.088C184.339 51.896 183.987 51.7467 183.496 51.64L182.136 51.32C181.464 51.1707 180.941 50.904 180.568 50.52C180.205 50.136 180.024 49.6773 180.024 49.144C180.024 48.44 180.307 47.8693 180.872 47.432C181.437 46.984 182.184 46.76 183.112 46.76C183.677 46.76 184.211 46.8507 184.712 47.032C185.213 47.2133 185.635 47.4747 185.976 47.816L185.544 48.76C184.787 48.1307 183.976 47.816 183.112 47.816C182.536 47.816 182.088 47.928 181.768 48.152C181.459 48.3653 181.304 48.6693 181.304 49.064C181.304 49.3947 181.4 49.656 181.592 49.848C181.795 50.04 182.115 50.1893 182.552 50.296L183.912 50.632C184.659 50.8027 185.213 51.0693 185.576 51.432C185.939 51.784 186.12 52.248 186.12 52.824C186.12 53.5173 185.837 54.072 185.272 54.488C184.707 54.904 183.939 55.112 182.968 55.112ZM190.906 55.112C189.551 55.112 188.479 54.7653 187.69 54.072L188.122 53.112C188.559 53.4533 189.002 53.6987 189.45 53.848C189.898 53.9973 190.399 54.072 190.954 54.072C191.562 54.072 192.02 53.9707 192.33 53.768C192.65 53.5547 192.81 53.2507 192.81 52.856C192.81 52.536 192.703 52.28 192.49 52.088C192.276 51.896 191.924 51.7467 191.434 51.64L190.074 51.32C189.402 51.1707 188.879 50.904 188.506 50.52C188.143 50.136 187.962 49.6773 187.962 49.144C187.962 48.44 188.244 47.8693 188.81 47.432C189.375 46.984 190.122 46.76 191.049 46.76C191.615 46.76 192.148 46.8507 192.65 47.032C193.151 47.2133 193.572 47.4747 193.914 47.816L193.482 48.76C192.724 48.1307 191.914 47.816 191.049 47.816C190.474 47.816 190.026 47.928 189.706 48.152C189.396 48.3653 189.242 48.6693 189.242 49.064C189.242 49.3947 189.338 49.656 189.53 49.848C189.732 50.04 190.052 50.1893 190.49 50.296L191.85 50.632C192.596 50.8027 193.151 51.0693 193.514 51.432C193.876 51.784 194.058 52.248 194.058 52.824C194.058 53.5173 193.775 54.072 193.21 54.488C192.644 54.904 191.876 55.112 190.906 55.112ZM199.211 44.28C198.784 44.28 198.448 44.4027 198.203 44.648C197.968 44.8827 197.851 45.2933 197.851 45.88V46.952H199.819V47.976H197.851V55H196.555V47.976H194.987V46.952H196.555V45.72C196.555 44.8773 196.763 44.2427 197.179 43.816C197.606 43.3787 198.198 43.16 198.955 43.16C199.328 43.16 199.691 43.208 200.043 43.304V44.408C199.744 44.3227 199.467 44.28 199.211 44.28ZM208.25 46.952V55H206.986V53.608C206.73 54.0987 206.372 54.472 205.914 54.728C205.455 54.984 204.938 55.112 204.362 55.112C203.412 55.112 202.692 54.8453 202.202 54.312C201.711 53.7787 201.466 52.9893 201.466 51.944V46.952H202.762V51.912C202.762 52.6373 202.911 53.1707 203.21 53.512C203.508 53.8533 203.962 54.024 204.57 54.024C205.284 54.024 205.86 53.7947 206.298 53.336C206.735 52.8667 206.954 52.2533 206.954 51.496V46.952H208.25ZM210.748 43.224H212.044V55H210.748V43.224ZM214.561 43.224H215.857V55H214.561V43.224ZM225.445 46.952L221.685 55.736C221.29 56.6533 220.794 57.3253 220.197 57.752C219.6 58.1787 218.864 58.472 217.989 58.632L217.717 57.624C218.474 57.4533 219.045 57.224 219.429 56.936C219.824 56.6587 220.149 56.2267 220.405 55.64L220.725 54.92L217.317 46.952H218.677L221.397 53.592L224.149 46.952H225.445ZM233.765 55.112C232.41 55.112 231.338 54.7653 230.549 54.072L230.981 53.112C231.418 53.4533 231.861 53.6987 232.309 53.848C232.757 53.9973 233.258 54.072 233.813 54.072C234.421 54.072 234.88 53.9707 235.189 53.768C235.509 53.5547 235.669 53.2507 235.669 52.856C235.669 52.536 235.562 52.28 235.349 52.088C235.136 51.896 234.784 51.7467 234.293 51.64L232.933 51.32C232.261 51.1707 231.738 50.904 231.365 50.52C231.002 50.136 230.821 49.6773 230.821 49.144C230.821 48.44 231.104 47.8693 231.669 47.432C232.234 46.984 232.981 46.76 233.909 46.76C234.474 46.76 235.008 46.8507 235.509 47.032C236.01 47.2133 236.432 47.4747 236.773 47.816L236.341 48.76C235.584 48.1307 234.773 47.816 233.909 47.816C233.333 47.816 232.885 47.928 232.565 48.152C232.256 48.3653 232.101 48.6693 232.101 49.064C232.101 49.3947 232.197 49.656 232.389 49.848C232.592 50.04 232.912 50.1893 233.349 50.296L234.709 50.632C235.456 50.8027 236.01 51.0693 236.373 51.432C236.736 51.784 236.917 52.248 236.917 52.824C236.917 53.5173 236.634 54.072 236.069 54.488C235.504 54.904 234.736 55.112 233.765 55.112ZM238.982 46.952H240.278V55H238.982V46.952ZM240.438 43.544V45.016H238.854V43.544H240.438ZM249.963 46.952V54.936C249.963 56.1307 249.654 57.032 249.035 57.64C248.427 58.2587 247.526 58.568 246.331 58.568C245.104 58.568 244.048 58.2907 243.163 57.736L243.387 56.68C243.899 56.968 244.379 57.176 244.827 57.304C245.286 57.432 245.787 57.496 246.331 57.496C247.11 57.496 247.696 57.288 248.091 56.872C248.486 56.4667 248.683 55.8587 248.683 55.048V53.144C248.438 53.656 248.075 54.056 247.595 54.344C247.126 54.6213 246.566 54.76 245.915 54.76C245.211 54.76 244.582 54.5947 244.027 54.264C243.483 53.9333 243.062 53.464 242.763 52.856C242.464 52.248 242.315 51.5493 242.315 50.76C242.315 49.9707 242.464 49.272 242.763 48.664C243.062 48.056 243.483 47.5867 244.027 47.256C244.582 46.9253 245.211 46.76 245.915 46.76C246.555 46.76 247.11 46.8987 247.579 47.176C248.059 47.4533 248.422 47.8427 248.667 48.344V46.952H249.963ZM246.171 53.672C246.95 53.672 247.558 53.416 247.995 52.904C248.443 52.3813 248.667 51.6667 248.667 50.76C248.667 49.8533 248.443 49.144 247.995 48.632C247.558 48.1093 246.95 47.848 246.171 47.848C245.382 47.848 244.758 48.1093 244.299 48.632C243.851 49.144 243.627 49.8533 243.627 50.76C243.627 51.6667 243.851 52.3813 244.299 52.904C244.758 53.416 245.382 53.672 246.171 53.672ZM256.467 46.76C258.398 46.76 259.363 47.8213 259.363 49.944V55H258.067V50.008C258.067 49.2613 257.918 48.7173 257.619 48.376C257.32 48.024 256.851 47.848 256.211 47.848C255.464 47.848 254.867 48.0773 254.419 48.536C253.971 48.9947 253.747 49.6133 253.747 50.392V55H252.451V49.208C252.451 48.376 252.408 47.624 252.323 46.952H253.555L253.683 48.392C253.928 47.8693 254.296 47.4693 254.787 47.192C255.278 46.904 255.838 46.76 256.467 46.76ZM268.547 50.936H262.643C262.653 51.96 262.888 52.7333 263.347 53.256C263.816 53.7787 264.493 54.04 265.379 54.04C266.317 54.04 267.181 53.7253 267.971 53.096L268.403 54.04C268.051 54.3707 267.597 54.632 267.043 54.824C266.499 55.016 265.939 55.112 265.363 55.112C264.104 55.112 263.117 54.744 262.403 54.008C261.688 53.2613 261.331 52.2427 261.331 50.952C261.331 50.1307 261.491 49.4053 261.811 48.776C262.131 48.136 262.579 47.64 263.155 47.288C263.731 46.936 264.387 46.76 265.123 46.76C266.189 46.76 267.027 47.112 267.635 47.816C268.243 48.5093 268.547 49.4693 268.547 50.696V50.936ZM265.139 47.768C264.467 47.768 263.917 47.9707 263.491 48.376C263.075 48.7813 262.808 49.352 262.691 50.088H267.379C267.315 49.3307 267.091 48.7547 266.707 48.36C266.333 47.9653 265.811 47.768 265.139 47.768ZM277.602 43.224V55H276.322V53.544C276.087 54.0453 275.73 54.4347 275.25 54.712C274.78 54.9787 274.231 55.112 273.602 55.112C272.898 55.112 272.274 54.936 271.73 54.584C271.196 54.232 270.78 53.7413 270.482 53.112C270.183 52.472 270.034 51.736 270.034 50.904C270.034 50.072 270.178 49.3467 270.466 48.728C270.764 48.0987 271.186 47.6133 271.73 47.272C272.274 46.9307 272.898 46.76 273.602 46.76C274.231 46.76 274.78 46.8987 275.25 47.176C275.719 47.4427 276.071 47.8213 276.306 48.312V43.224H277.602ZM273.858 54.04C274.647 54.04 275.255 53.7733 275.682 53.24C276.108 52.696 276.322 51.928 276.322 50.936C276.322 49.9547 276.108 49.1973 275.682 48.664C275.255 48.12 274.647 47.848 273.858 47.848C273.068 47.848 272.45 48.1147 272.002 48.648C271.564 49.1813 271.346 49.9333 271.346 50.904C271.346 51.896 271.564 52.6693 272.002 53.224C272.45 53.768 273.068 54.04 273.858 54.04ZM291.015 46.952V55H289.751V53.608C289.495 54.0987 289.138 54.472 288.679 54.728C288.221 54.984 287.703 55.112 287.127 55.112C286.178 55.112 285.458 54.8453 284.967 54.312C284.477 53.7787 284.231 52.9893 284.231 51.944V46.952H285.527V51.912C285.527 52.6373 285.677 53.1707 285.975 53.512C286.274 53.8533 286.727 54.024 287.335 54.024C288.05 54.024 288.626 53.7947 289.063 53.336C289.501 52.8667 289.719 52.2533 289.719 51.496V46.952H291.015ZM297.53 46.76C298.234 46.76 298.858 46.936 299.402 47.288C299.946 47.64 300.367 48.136 300.666 48.776C300.964 49.4053 301.114 50.136 301.114 50.968C301.114 51.8 300.964 52.5307 300.666 53.16C300.367 53.7787 299.946 54.2587 299.402 54.6C298.868 54.9413 298.244 55.112 297.53 55.112C296.9 55.112 296.351 54.9733 295.882 54.696C295.412 54.4187 295.055 54.024 294.81 53.512V58.456H293.514V49.208C293.514 48.376 293.471 47.624 293.386 46.952H294.618L294.746 48.504C294.97 47.9493 295.322 47.5227 295.802 47.224C296.292 46.9147 296.868 46.76 297.53 46.76ZM297.29 54.04C298.079 54.04 298.687 53.7733 299.114 53.24C299.551 52.7067 299.77 51.9493 299.77 50.968C299.77 49.9867 299.551 49.224 299.114 48.68C298.676 48.1253 298.068 47.848 297.29 47.848C296.49 47.848 295.876 48.1147 295.45 48.648C295.023 49.1813 294.81 49.944 294.81 50.936C294.81 51.928 295.023 52.696 295.45 53.24C295.876 53.7733 296.49 54.04 297.29 54.04ZM310.367 44.28C309.941 44.28 309.605 44.4027 309.359 44.648C309.125 44.8827 309.007 45.2933 309.007 45.88V46.952H310.975V47.976H309.007V55H307.711V47.976H306.143V46.952H307.711V45.72C307.711 44.8773 307.919 44.2427 308.335 43.816C308.762 43.3787 309.354 43.16 310.111 43.16C310.485 43.16 310.847 43.208 311.199 43.304V44.408C310.901 44.3227 310.623 44.28 310.367 44.28ZM315.92 55.112C315.162 55.112 314.496 54.9413 313.92 54.6C313.344 54.2587 312.896 53.7733 312.576 53.144C312.266 52.5147 312.112 51.7787 312.112 50.936C312.112 50.0933 312.266 49.3573 312.576 48.728C312.896 48.0987 313.344 47.6133 313.92 47.272C314.496 46.9307 315.162 46.76 315.92 46.76C316.677 46.76 317.344 46.9307 317.92 47.272C318.496 47.6133 318.938 48.0987 319.248 48.728C319.568 49.3573 319.728 50.0933 319.728 50.936C319.728 51.7787 319.568 52.5147 319.248 53.144C318.938 53.7733 318.496 54.2587 317.92 54.6C317.344 54.9413 316.677 55.112 315.92 55.112ZM315.92 54.04C316.72 54.04 317.333 53.7787 317.76 53.256C318.186 52.7227 318.4 51.9493 318.4 50.936C318.4 49.9547 318.181 49.1973 317.744 48.664C317.306 48.12 316.698 47.848 315.92 47.848C315.13 47.848 314.517 48.12 314.08 48.664C313.642 49.1973 313.424 49.9547 313.424 50.936C313.424 51.9493 313.637 52.7227 314.064 53.256C314.501 53.7787 315.12 54.04 315.92 54.04ZM325.492 46.76C325.759 46.76 326.004 46.792 326.228 46.856L326.196 48.04C325.951 47.9547 325.668 47.912 325.348 47.912C324.569 47.912 323.988 48.1573 323.604 48.648C323.231 49.128 323.044 49.7147 323.044 50.408V55H321.748V49.208C321.748 48.376 321.705 47.624 321.62 46.952H322.852L322.98 48.44C323.183 47.896 323.508 47.48 323.956 47.192C324.404 46.904 324.916 46.76 325.492 46.76ZM338.805 46.952V55H337.525V53.544C337.29 54.0453 336.933 54.4347 336.453 54.712C335.983 54.9787 335.434 55.112 334.805 55.112C334.09 55.112 333.461 54.9413 332.917 54.6C332.383 54.2587 331.967 53.7787 331.669 53.16C331.381 52.5307 331.237 51.8 331.237 50.968C331.237 50.136 331.386 49.4053 331.685 48.776C331.983 48.136 332.399 47.64 332.933 47.288C333.477 46.936 334.101 46.76 334.805 46.76C335.434 46.76 335.983 46.8987 336.453 47.176C336.922 47.4533 337.279 47.8427 337.525 48.344V46.952H338.805ZM335.061 54.04C335.85 54.04 336.458 53.7733 336.885 53.24C337.311 52.696 337.525 51.928 337.525 50.936C337.525 49.944 337.311 49.1813 336.885 48.648C336.458 48.1147 335.85 47.848 335.061 47.848C334.271 47.848 333.653 48.1253 333.205 48.68C332.767 49.224 332.549 49.9867 332.549 50.968C332.549 51.9493 332.767 52.7067 333.205 53.24C333.642 53.7733 334.261 54.04 335.061 54.04ZM349.146 44.808C348.282 44.808 347.85 45.2827 347.85 46.232V46.92H349.658V48.424H347.85V55H345.85V48.424H344.314V46.92H345.85V46.136C345.85 45.176 346.09 44.44 346.57 43.928C347.061 43.4053 347.76 43.144 348.666 43.144C349.168 43.144 349.589 43.208 349.93 43.336V44.92C349.632 44.8453 349.37 44.808 349.146 44.808ZM355.549 46.728C355.859 46.728 356.125 46.7707 356.349 46.856L356.333 48.68C355.992 48.5413 355.64 48.472 355.277 48.472C354.595 48.472 354.072 48.6693 353.709 49.064C353.357 49.4587 353.181 49.9813 353.181 50.632V55H351.197V49.208C351.197 48.3547 351.155 47.592 351.069 46.92H352.941L353.101 48.344C353.304 47.8213 353.624 47.4213 354.061 47.144C354.499 46.8667 354.995 46.728 355.549 46.728ZM364.379 51.064H358.811C358.853 51.928 359.067 52.568 359.451 52.984C359.845 53.3893 360.427 53.592 361.195 53.592C362.08 53.592 362.901 53.304 363.659 52.728L364.235 54.104C363.851 54.4133 363.376 54.664 362.811 54.856C362.256 55.0373 361.691 55.128 361.115 55.128C359.792 55.128 358.752 54.7547 357.995 54.008C357.237 53.2613 356.859 52.2373 356.859 50.936C356.859 50.1147 357.024 49.384 357.355 48.744C357.685 48.104 358.149 47.608 358.747 47.256C359.344 46.8933 360.021 46.712 360.779 46.712C361.888 46.712 362.763 47.0747 363.403 47.8C364.053 48.5147 364.379 49.5013 364.379 50.76V51.064ZM360.827 48.152C360.293 48.152 359.856 48.312 359.515 48.632C359.184 48.9413 358.971 49.3947 358.875 49.992H362.635C362.571 49.384 362.384 48.9253 362.075 48.616C361.776 48.3067 361.36 48.152 360.827 48.152ZM373.144 51.064H367.576C367.619 51.928 367.832 52.568 368.216 52.984C368.611 53.3893 369.192 53.592 369.96 53.592C370.846 53.592 371.667 53.304 372.424 52.728L373 54.104C372.616 54.4133 372.142 54.664 371.576 54.856C371.022 55.0373 370.456 55.128 369.88 55.128C368.558 55.128 367.518 54.7547 366.76 54.008C366.003 53.2613 365.624 52.2373 365.624 50.936C365.624 50.1147 365.79 49.384 366.12 48.744C366.451 48.104 366.915 47.608 367.512 47.256C368.11 46.8933 368.787 46.712 369.544 46.712C370.654 46.712 371.528 47.0747 372.168 47.8C372.819 48.5147 373.144 49.5013 373.144 50.76V51.064ZM369.592 48.152C369.059 48.152 368.622 48.312 368.28 48.632C367.95 48.9413 367.736 49.3947 367.64 49.992H371.4C371.336 49.384 371.15 48.9253 370.84 48.616C370.542 48.3067 370.126 48.152 369.592 48.152ZM381.773 48.424V52.04C381.773 52.9893 382.215 53.464 383.101 53.464C383.346 53.464 383.613 53.4213 383.901 53.336V54.92C383.549 55.048 383.122 55.112 382.621 55.112C381.703 55.112 380.999 54.856 380.509 54.344C380.018 53.832 379.773 53.096 379.773 52.136V48.424H378.221V46.92H379.773V44.952L381.773 44.28V46.92H383.917V48.424H381.773ZM389.643 46.728C389.952 46.728 390.219 46.7707 390.443 46.856L390.427 48.68C390.086 48.5413 389.734 48.472 389.371 48.472C388.688 48.472 388.166 48.6693 387.803 49.064C387.451 49.4587 387.275 49.9813 387.275 50.632V55H385.291V49.208C385.291 48.3547 385.248 47.592 385.163 46.92H387.035L387.195 48.344C387.398 47.8213 387.718 47.4213 388.155 47.144C388.592 46.8667 389.088 46.728 389.643 46.728ZM391.557 46.92H393.541V55H391.557V46.92ZM393.653 43.256V45.224H391.429V43.256H393.653ZM403.457 46.92V55H401.489V53.704C401.243 54.152 400.891 54.504 400.433 54.76C399.974 55.0053 399.451 55.128 398.865 55.128C398.161 55.128 397.537 54.9573 396.993 54.616C396.449 54.2747 396.027 53.7893 395.729 53.16C395.43 52.5307 395.281 51.8 395.281 50.968C395.281 50.136 395.43 49.4 395.729 48.76C396.038 48.1093 396.465 47.608 397.009 47.256C397.553 46.8933 398.171 46.712 398.865 46.712C399.451 46.712 399.974 46.84 400.433 47.096C400.891 47.3413 401.243 47.688 401.489 48.136V46.92H403.457ZM399.409 53.56C400.07 53.56 400.582 53.3307 400.945 52.872C401.307 52.4133 401.489 51.768 401.489 50.936C401.489 50.0827 401.307 49.4267 400.945 48.968C400.582 48.5093 400.065 48.28 399.393 48.28C398.731 48.28 398.214 48.52 397.841 49C397.478 49.4693 397.297 50.1253 397.297 50.968C397.297 51.8 397.478 52.44 397.841 52.888C398.214 53.336 398.737 53.56 399.409 53.56ZM405.635 43.224H407.619V55H405.635V43.224ZM70.752 75.128C69.9307 75.128 69.2053 74.9573 68.576 74.616C67.9573 74.2747 67.4773 73.7893 67.136 73.16C66.8053 72.52 66.64 71.7733 66.64 70.92C66.64 70.0667 66.8053 69.3253 67.136 68.696C67.4773 68.056 67.9573 67.5653 68.576 67.224C69.2053 66.8827 69.9307 66.712 70.752 66.712C71.5627 66.712 72.2773 66.8827 72.896 67.224C73.5147 67.5653 73.9893 68.056 74.32 68.696C74.6613 69.3253 74.832 70.0667 74.832 70.92C74.832 71.7733 74.6613 72.52 74.32 73.16C73.9893 73.7893 73.5147 74.2747 72.896 74.616C72.2773 74.9573 71.5627 75.128 70.752 75.128ZM70.736 73.56C71.4187 73.56 71.936 73.3413 72.288 72.904C72.6507 72.456 72.832 71.7947 72.832 70.92C72.832 70.056 72.6507 69.4 72.288 68.952C71.9253 68.4933 71.4133 68.264 70.752 68.264C70.08 68.264 69.5627 68.4933 69.2 68.952C68.8373 69.4 68.656 70.056 68.656 70.92C68.656 71.7947 68.832 72.456 69.184 72.904C69.5467 73.3413 70.064 73.56 70.736 73.56ZM80.3339 64.808C79.4699 64.808 79.0379 65.2827 79.0379 66.232V66.92H80.8459V68.424H79.0379V75H77.0379V68.424H75.5019V66.92H77.0379V66.136C77.0379 65.176 77.2779 64.44 77.7579 63.928C78.2485 63.4053 78.9472 63.144 79.8539 63.144C80.3552 63.144 80.7765 63.208 81.1179 63.336V64.92C80.8192 64.8453 80.5579 64.808 80.3339 64.808ZM89.3195 68.424V72.04C89.3195 72.9893 89.7622 73.464 90.6475 73.464C90.8928 73.464 91.1595 73.4213 91.4475 73.336V74.92C91.0955 75.048 90.6688 75.112 90.1675 75.112C89.2502 75.112 88.5462 74.856 88.0555 74.344C87.5648 73.832 87.3195 73.096 87.3195 72.136V68.424H85.7675V66.92H87.3195V64.952L89.3195 64.28V66.92H91.4635V68.424H89.3195ZM97.462 66.712C99.3927 66.712 100.358 67.8213 100.358 70.04V75H98.358V70.136C98.358 69.496 98.2353 69.032 97.99 68.744C97.7447 68.4453 97.366 68.296 96.854 68.296C96.246 68.296 95.7553 68.4933 95.382 68.888C95.0087 69.272 94.822 69.784 94.822 70.424V75H92.838V63.224H94.822V68.088C95.0993 67.6507 95.4673 67.3147 95.926 67.08C96.3847 66.8347 96.8967 66.712 97.462 66.712ZM109.551 71.064H103.983C104.025 71.928 104.239 72.568 104.623 72.984C105.017 73.3893 105.599 73.592 106.367 73.592C107.252 73.592 108.073 73.304 108.831 72.728L109.407 74.104C109.023 74.4133 108.548 74.664 107.983 74.856C107.428 75.0373 106.863 75.128 106.287 75.128C104.964 75.128 103.924 74.7547 103.167 74.008C102.409 73.2613 102.031 72.2373 102.031 70.936C102.031 70.1147 102.196 69.384 102.527 68.744C102.857 68.104 103.321 67.608 103.919 67.256C104.516 66.8933 105.193 66.712 105.951 66.712C107.06 66.712 107.935 67.0747 108.575 67.8C109.225 68.5147 109.551 69.5013 109.551 70.76V71.064ZM105.999 68.152C105.465 68.152 105.028 68.312 104.687 68.632C104.356 68.9413 104.143 69.3947 104.047 69.992H107.807C107.743 69.384 107.556 68.9253 107.247 68.616C106.948 68.3067 106.532 68.152 105.999 68.152ZM119.299 75.128C118.456 75.128 117.726 74.9573 117.107 74.616C116.488 74.2747 116.014 73.7947 115.683 73.176C115.352 72.5467 115.187 71.8107 115.187 70.968C115.187 70.1253 115.358 69.384 115.699 68.744C116.051 68.104 116.542 67.608 117.171 67.256C117.811 66.8933 118.547 66.712 119.379 66.712C119.955 66.712 120.51 66.8027 121.043 66.984C121.587 67.1653 122.019 67.416 122.339 67.736L121.779 69.144C121.438 68.8667 121.075 68.6587 120.691 68.52C120.307 68.3707 119.928 68.296 119.555 68.296C118.83 68.296 118.264 68.5253 117.859 68.984C117.454 69.432 117.251 70.0827 117.251 70.936C117.251 71.7893 117.448 72.44 117.843 72.888C118.248 73.336 118.819 73.56 119.555 73.56C119.928 73.56 120.307 73.4853 120.691 73.336C121.075 73.1867 121.438 72.9733 121.779 72.696L122.339 74.104C121.998 74.424 121.555 74.6747 121.011 74.856C120.467 75.0373 119.896 75.128 119.299 75.128ZM127.346 75.128C126.524 75.128 125.799 74.9573 125.17 74.616C124.551 74.2747 124.071 73.7893 123.73 73.16C123.399 72.52 123.234 71.7733 123.234 70.92C123.234 70.0667 123.399 69.3253 123.73 68.696C124.071 68.056 124.551 67.5653 125.17 67.224C125.799 66.8827 126.524 66.712 127.346 66.712C128.156 66.712 128.871 66.8827 129.49 67.224C130.108 67.5653 130.583 68.056 130.914 68.696C131.255 69.3253 131.426 70.0667 131.426 70.92C131.426 71.7733 131.255 72.52 130.914 73.16C130.583 73.7893 130.108 74.2747 129.49 74.616C128.871 74.9573 128.156 75.128 127.346 75.128ZM127.33 73.56C128.012 73.56 128.53 73.3413 128.882 72.904C129.244 72.456 129.426 71.7947 129.426 70.92C129.426 70.056 129.244 69.4 128.882 68.952C128.519 68.4933 128.007 68.264 127.346 68.264C126.674 68.264 126.156 68.4933 125.794 68.952C125.431 69.4 125.25 70.056 125.25 70.92C125.25 71.7947 125.426 72.456 125.778 72.904C126.14 73.3413 126.658 73.56 127.33 73.56ZM140.51 66.92V75H138.559V73.752C138.303 74.2 137.961 74.5413 137.535 74.776C137.108 75.0107 136.617 75.128 136.062 75.128C134.089 75.128 133.103 74.0187 133.103 71.8V66.92H135.087V71.816C135.087 72.4027 135.204 72.8347 135.439 73.112C135.684 73.3893 136.057 73.528 136.559 73.528C137.145 73.528 137.615 73.336 137.967 72.952C138.319 72.568 138.495 72.056 138.495 71.416V66.92H140.51ZM147.034 66.728C147.343 66.728 147.61 66.7707 147.834 66.856L147.818 68.68C147.476 68.5413 147.124 68.472 146.762 68.472C146.079 68.472 145.556 68.6693 145.194 69.064C144.842 69.4587 144.666 69.9813 144.666 70.632V75H142.682V69.208C142.682 68.3547 142.639 67.592 142.554 66.92H144.426L144.586 68.344C144.788 67.8213 145.108 67.4213 145.546 67.144C145.983 66.8667 146.479 66.728 147.034 66.728ZM151.829 75.128C150.368 75.128 149.205 74.7867 148.341 74.104L148.901 72.696C149.765 73.336 150.752 73.656 151.861 73.656C152.341 73.656 152.709 73.576 152.965 73.416C153.232 73.256 153.365 73.032 153.365 72.744C153.365 72.4987 153.275 72.3067 153.093 72.168C152.912 72.0187 152.603 71.8907 152.165 71.784L150.821 71.48C149.349 71.16 148.613 70.408 148.613 69.224C148.613 68.7333 148.752 68.3013 149.029 67.928C149.307 67.544 149.696 67.2453 150.197 67.032C150.699 66.8187 151.28 66.712 151.941 66.712C152.517 66.712 153.072 66.8027 153.605 66.984C154.139 67.1547 154.608 67.4053 155.013 67.736L154.421 69.096C153.611 68.4987 152.779 68.2 151.925 68.2C151.467 68.2 151.109 68.2853 150.853 68.456C150.597 68.6267 150.469 68.8613 150.469 69.16C150.469 69.3947 150.544 69.5813 150.693 69.72C150.853 69.8587 151.12 69.976 151.493 70.072L152.869 70.376C153.669 70.5573 154.251 70.84 154.613 71.224C154.987 71.5973 155.173 72.088 155.173 72.696C155.173 73.4427 154.875 74.0347 154.277 74.472C153.68 74.9093 152.864 75.128 151.829 75.128ZM163.957 71.064H158.389C158.432 71.928 158.645 72.568 159.029 72.984C159.424 73.3893 160.005 73.592 160.773 73.592C161.658 73.592 162.48 73.304 163.237 72.728L163.813 74.104C163.429 74.4133 162.954 74.664 162.389 74.856C161.834 75.0373 161.269 75.128 160.693 75.128C159.37 75.128 158.33 74.7547 157.573 74.008C156.816 73.2613 156.437 72.2373 156.437 70.936C156.437 70.1147 156.602 69.384 156.933 68.744C157.264 68.104 157.728 67.608 158.325 67.256C158.922 66.8933 159.6 66.712 160.357 66.712C161.466 66.712 162.341 67.0747 162.981 67.8C163.632 68.5147 163.957 69.5013 163.957 70.76V71.064ZM160.405 68.152C159.872 68.152 159.434 68.312 159.093 68.632C158.762 68.9413 158.549 69.3947 158.453 69.992H162.213C162.149 69.384 161.962 68.9253 161.653 68.616C161.354 68.3067 160.938 68.152 160.405 68.152Z" fill="#616161"/>
<path d="M37.7003 50.5937L32.9681 49.2853C32.6094 49.1864 32.2283 49.3416 32.0486 49.6614L29.6791 53.8807C29.5841 54.05 29.3325 54.0359 29.2557 53.8588L27.1265 48.8766L22 36.8817L25.7968 28L29.0234 29.3221L32.2537 36.8809L37.9814 50.2828C38.0571 50.461 37.8891 50.6459 37.7003 50.5937Z" fill="#FF8000"/>
<path d="M32.2537 36.8809L27.1265 48.8766L22 36.8817L25.7968 28L29.023 29.3221L32.2537 36.8809Z" fill="#FF5F06"/>
<path d="M20.497 54.8773L18.0601 50.5339C17.8757 50.2047 17.4838 50.0441 17.1154 50.1463L12.2489 51.4933C12.0544 51.5471 11.882 51.3563 11.9602 51.1732L22.2168 27.146L31.1887 30.8272L20.932 54.8544C20.8538 55.0375 20.5947 55.0513 20.497 54.8773Z" fill="#FF8000"/>
<path d="M27.1417 5.76907L30.0713 8.18395C30.5892 8.6108 31.2228 8.87316 31.8903 8.93751L35.6695 9.30115C37.274 9.45575 38.5439 10.7256 38.6985 12.3302L39.0625 16.1094C39.1269 16.7773 39.3892 17.4109 39.8161 17.9284L42.2309 20.8581C43.2564 22.1021 43.2564 23.8978 42.2309 25.1418L39.8161 28.0715C39.3892 28.589 39.1269 29.2226 39.0625 29.8905L38.6985 33.6697C38.5439 35.2743 37.274 36.5442 35.6695 36.6988L31.8903 37.0628C31.2224 37.1271 30.5892 37.3895 30.0713 37.8159L27.1417 40.2312C25.8981 41.2563 24.1019 41.2563 22.858 40.2312L19.9287 37.8159C19.4108 37.3895 18.7772 37.1271 18.1093 37.0628L14.3305 36.6988C12.726 36.5442 11.4557 35.2743 11.3015 33.6697L10.9375 29.8905C10.8731 29.2226 10.6108 28.589 10.1839 28.0715L7.76907 25.1418C6.74364 23.8982 6.74364 22.1021 7.76907 20.8581L10.1839 17.9288C10.6108 17.4109 10.8731 16.7773 10.9375 16.1094L11.3011 12.3302C11.4557 10.726 12.7256 9.45575 14.3302 9.30153L18.1093 8.93751C18.7772 8.87316 19.4108 8.6108 19.9283 8.18395L22.858 5.76907C24.1019 4.74364 25.8981 4.74364 27.1417 5.76907Z" fill="#FFD782"/>
<path d="M36 22.9998C36 29.0751 31.0751 34 24.9998 34C18.9249 34 14 29.0751 14 22.9998C14 16.9249 18.9249 12 24.9998 12C31.0751 12 36 16.9249 36 22.9998Z" fill="#4FA660"/>
<path d="M25.6092 12C24.7083 12 23.8338 12.1213 23 12.3497C27.4757 13.5749 30.7817 17.8786 30.7817 23C30.7817 28.1214 27.4761 32.4251 23 33.6503C23.8338 33.8787 24.7083 34 25.6092 34C31.3479 34 36 29.0751 36 23C36 16.9246 31.3479 12 25.6092 12Z" fill="#009245"/>
<path d="M23.0075 28.4297C22.5822 28.4297 22.1744 28.2641 21.8737 27.9692L18.4698 24.6318C17.8434 24.018 17.8434 23.0223 18.4698 22.4082C19.0959 21.794 20.1114 21.794 20.7379 22.4082L23.0079 24.6337L29.3043 18.4603C29.9308 17.8466 30.9463 17.8466 31.5724 18.4603C32.1988 19.0745 32.1988 20.0701 31.5724 20.6843L24.1417 27.9692C23.841 28.2641 23.4332 28.4297 23.0075 28.4297Z" fill="white"/>
</svg>
